<svg xmlns="http://www.w3.org/2000/svg" width="26" height="21" viewBox="0 0 26 21" fill="none">
  <path d="M15.8909 0.912537C15.6057 1.14987 15.178 1.50587 15.0354 1.62454C14.8273 1.37448 14.1259 1.11171 13.6326 1.099C13.1393 1.08628 12.3609 1.31089 11.648 1.90422C11.3628 2.14156 11.0776 2.37889 10.8965 2.74125C10.5458 2.60986 10.2992 2.6035 9.94847 2.47212C9.45519 2.4594 8.81933 2.56535 7.96381 3.27734C7.67863 3.51468 7.39346 3.75201 7.35492 3.9957L5.58606 1.87027C4.96175 1.12012 3.559 0.594578 2.13313 1.78124C1.56278 2.2559 1.20054 2.98062 0.980877 3.58667C0.892247 4.93015 1.72465 5.93036 1.72465 5.93036L6.19884 11.3064C5.44737 12.1435 4.94253 12.9869 4.82693 13.7179C4.69976 15.3051 5.63622 16.4303 6.88483 17.9306C7.09293 18.1807 7.40508 18.5558 7.61318 18.8058C9.06989 20.5562 10.7964 20.6007 12.5228 20.6452L13.3668 20.7893C16.469 20.7469 18.4537 19.9417 22.3035 16.7377C26.4386 13.2964 26.6274 9.75334 22.9856 5.37746L20.3843 2.25182C19.656 1.37664 17.9141 -0.136381 15.8909 0.912537ZM18.9585 3.43848L21.6638 6.68914C25.2015 10.94 24.0762 13.3578 21.3671 15.6125C17.945 18.4605 16.3496 19.1534 13.8832 19.0898C13.6365 19.0835 13.3899 19.0771 12.8966 19.0644C11.0661 18.8948 10.0796 18.8694 9.03905 17.6191C8.83095 17.3691 8.5188 16.994 8.3107 16.744C7.27019 15.4937 6.54183 14.6185 6.55339 13.7624C6.59193 13.5187 6.91564 13.0377 7.3434 12.6817L7.86365 13.3069L8.99665 15.5382C9.1007 15.6633 9.1007 15.6633 9.34734 15.6696C9.59398 15.676 9.63251 15.4323 9.63251 15.4323L9.80977 12.7453C9.70572 12.6203 9.60167 12.4953 9.60167 12.4953L3.15052 4.74369C3.04647 4.61867 2.63027 4.11857 2.70734 3.63118C2.84993 3.51252 2.88846 3.26883 3.17364 3.03149C3.6014 2.6755 4.05614 2.93191 4.16019 3.05693L7.38576 6.93272L8.63437 8.43302C8.94653 8.8081 9.54385 8.94584 9.97161 8.58984C10.3994 8.23385 10.3724 7.62144 10.1643 7.37139L8.81163 5.74606C8.70758 5.62103 8.43397 5.00226 9.00431 4.5276C9.43208 4.1716 9.8213 4.05929 10.1335 4.43437L11.4861 6.0597C11.7983 6.43477 12.3956 6.57252 12.8234 6.21652C13.2511 5.86052 13.2241 5.24811 13.016 4.99806L12.2877 4.12288C12.1836 3.99786 12.1181 3.62914 12.6885 3.15448C12.9736 2.91714 13.2203 2.9235 13.2203 2.9235C13.6095 2.8112 13.9216 3.18627 13.9216 3.18627L14.7541 4.18648C15.0662 4.56155 15.5595 4.57427 15.8447 4.33694C16.2724 3.98094 16.4535 3.61858 16.1414 3.24351C16.0373 3.11848 16.0759 2.87479 16.1144 2.6311C16.1144 2.6311 16.257 2.51243 16.3996 2.39376C17.4632 1.93182 18.6463 3.06341 18.9585 3.43848C18.8544 3.31346 18.8544 3.31346 18.9585 3.43848Z" fill="white"/>
</svg>